<svg xmlns="http://www.w3.org/2000/svg" width="296" height="201" viewBox="0 0 296 201">
    <g fill="none" fill-rule="evenodd">
        <path fill="#D7E7FF" stroke="#C7DEFF" stroke-width="7.4" d="M65.528 75.062c-3.94 0-6.463 3.743-5.43 9.034l19.93 102.043c1.129 5.777 6.106 10.452 10.681 10.452h137.586c3.94 0 6.463-3.743 5.43-9.034l-19.93-102.043c-1.129-5.777-6.106-10.452-10.681-10.452H65.528z"/>
        <path fill="#FFF" stroke="#C7DEFF" stroke-width="7.4" d="M126.011 91.88c-4.813 0-10.179 4.132-11.626 9.036l-26.182 88.733c-1.219 4.13.772 6.942 4.727 6.942H230.97c4.813 0 10.179-4.134 11.626-9.037l26.182-88.733c1.22-4.13-.772-6.942-4.727-6.942H126.011z"/>
        <path fill="#D7E7FF" fill-rule="nonzero" d="M258.93 45.394l1.5-1.992c.69-.915 1.409-1.674 2.157-2.278a10.557 10.557 0 0 1 2.458-1.482c.89-.384 1.878-.666 2.964-.847 1.085-.18 2.313-.289 3.682-.326a48.547 48.547 0 0 0 3.094-.158c.868-.078 1.635-.224 2.3-.44a5.97 5.97 0 0 0 1.78-.916c.522-.395 1.033-.925 1.533-1.589.77-1.022 1.063-2.124.877-3.305-.185-1.18-.982-2.302-2.39-3.362-1.23-.927-2.748-1.663-4.557-2.21a54.85 54.85 0 0 0-5.836-1.403l1.756-8.002c1.104.129 2.258.33 3.462.605 1.204.274 2.41.62 3.618 1.038 1.207.417 2.378.913 3.51 1.485a20.773 20.773 0 0 1 3.144 1.946c1.817 1.37 3.29 2.825 4.42 4.366 1.13 1.54 1.885 3.115 2.265 4.723.38 1.61.39 3.22.027 4.83-.363 1.613-1.125 3.19-2.288 4.733-.852 1.13-1.737 2.046-2.656 2.746-.919.7-1.91 1.247-2.975 1.64-1.065.394-2.234.666-3.507.818a50.168 50.168 0 0 1-4.273.304 38.455 38.455 0 0 0-2.997.168c-.803.083-1.487.222-2.052.415a4.575 4.575 0 0 0-1.47.812c-.417.348-.84.809-1.274 1.383l-1.216 1.615-7.056-5.317zm-7.389 8.47c.622-.825 1.27-1.43 1.946-1.816.676-.385 1.364-.59 2.065-.611a5.166 5.166 0 0 1 2.117.398c.71.287 1.402.685 2.075 1.192a8.51 8.51 0 0 1 1.636 1.604c.454.59.767 1.225.939 1.905.172.68.17 1.401-.005 2.164-.175.762-.574 1.556-1.196 2.381-.595.79-1.232 1.37-1.91 1.74a4.89 4.89 0 0 1-2.088.614 5.118 5.118 0 0 1-2.12-.338 8.09 8.09 0 0 1-2.003-1.117 8.71 8.71 0 0 1-1.708-1.679 5.092 5.092 0 0 1-.936-1.965 4.722 4.722 0 0 1 .028-2.166c.178-.747.565-1.516 1.16-2.306zM22.925 69.872l-1.094-2.241c-.502-1.03-.852-2.015-1.05-2.956a10.557 10.557 0 0 1-.205-2.862c.062-.968.259-1.976.591-3.026.332-1.05.792-2.192 1.38-3.43.518-1.076.94-2.02 1.265-2.828.325-.809.543-1.558.652-2.25a5.969 5.969 0 0 0-.008-2.001c-.115-.644-.355-1.34-.72-2.086-.56-1.152-1.41-1.912-2.546-2.283-1.137-.37-2.497-.17-4.081.603-1.384.675-2.73 1.694-4.038 3.057a54.85 54.85 0 0 0-3.9 4.564L2.84 46.935a32.627 32.627 0 0 1 2.11-2.81 34.525 34.525 0 0 1 2.568-2.752 28.266 28.266 0 0 1 2.917-2.454 20.773 20.773 0 0 1 3.16-1.917c2.046-.998 4.012-1.65 5.897-1.957 1.886-.307 3.632-.265 5.238.126a10.614 10.614 0 0 1 4.316 2.17c1.271 1.054 2.33 2.45 3.177 4.187.62 1.272 1.035 2.476 1.241 3.613.207 1.136.244 2.268.111 3.395-.133 1.127-.42 2.293-.864 3.496-.443 1.204-1 2.519-1.669 3.945a38.454 38.454 0 0 0-1.21 2.747c-.29.754-.478 1.426-.562 2.017a4.575 4.575 0 0 0 .056 1.68c.12.527.339 1.115.654 1.76L30.865 66l-7.94 3.873zm4.192 10.429c-.452-.929-.697-1.782-.734-2.558-.037-.777.094-1.483.392-2.118a5.166 5.166 0 0 1 1.316-1.706 9.165 9.165 0 0 1 2.004-1.307 8.51 8.51 0 0 1 2.172-.73 5.187 5.187 0 0 1 2.124.029c.684.155 1.326.484 1.926.987.6.502 1.126 1.217 1.579 2.146.433.89.661 1.72.683 2.492a4.89 4.89 0 0 1-.401 2.14 5.118 5.118 0 0 1-1.263 1.735 8.09 8.09 0 0 1-1.905 1.277 8.71 8.71 0 0 1-2.272.76 5.092 5.092 0 0 1-2.175-.058 4.722 4.722 0 0 1-1.918-1.01c-.585-.497-1.094-1.19-1.528-2.08zM136.324 27.169l.307-1.936c.14-.889.358-1.681.653-2.376a8.344 8.344 0 0 1 1.15-1.936 9.987 9.987 0 0 1 1.729-1.683 21.18 21.18 0 0 1 2.412-1.589c.811-.46 1.501-.879 2.07-1.254a8.216 8.216 0 0 0 1.422-1.155 4.71 4.71 0 0 0 .89-1.293c.214-.467.372-1.023.475-1.668.157-.994-.043-1.865-.6-2.615-.558-.75-1.514-1.232-2.868-1.446-1.183-.187-2.495-.136-3.938.154-1.443.29-2.95.685-4.523 1.187l-1.707-6.195a25.28 25.28 0 0 1 2.6-.862 26.687 26.687 0 0 1 2.866-.619 21.803 21.803 0 0 1 2.954-.269c.988-.022 1.944.04 2.87.187 1.748.276 3.29.74 4.628 1.39 1.338.65 2.43 1.461 3.278 2.435a8.33 8.33 0 0 1 1.777 3.338c.338 1.251.388 2.626.15 4.126-.174 1.098-.449 2.06-.826 2.885a9.008 9.008 0 0 1-1.448 2.237 12.01 12.01 0 0 1-2.113 1.864 39.14 39.14 0 0 1-2.827 1.79c-.81.462-1.477.87-2 1.226-.52.355-.94.704-1.259 1.047a3.613 3.613 0 0 0-.715 1.106c-.16.395-.283.871-.371 1.43l-.249 1.569-6.787-1.075zm-1.763 8.598c.127-.802.355-1.46.686-1.976.331-.516.74-.91 1.225-1.184a4.162 4.162 0 0 1 1.643-.5 7.458 7.458 0 0 1 1.913.067c.63.1 1.216.271 1.759.514.542.244 1.002.57 1.38.98.378.41.65.911.813 1.506.164.594.183 1.292.056 2.094-.122.768-.352 1.404-.69 1.91a3.849 3.849 0 0 1-1.24 1.194 4.12 4.12 0 0 1-1.622.543 6.582 6.582 0 0 1-1.834-.04 7.087 7.087 0 0 1-1.838-.541 4.1 4.1 0 0 1-1.401-1.022 3.715 3.715 0 0 1-.798-1.517c-.157-.584-.174-1.26-.052-2.028z"/>
        <g transform="translate(137.718 118.254)">
            <ellipse cx="13.591" cy="22.333" fill="#D7E7FF" rx="3.997" ry="4.004"/>
            <ellipse cx="77.57" cy="21.977" fill="#D7E7FF" rx="3.997" ry="4.004"/>
            <path stroke="#D7E7FF" stroke-linecap="round" stroke-linejoin="round" stroke-width="5.6" d="M42.371 33.99h17.953c2.923 0 4.141-2.136 3.655-6.407V6.354C66.414 2.118 71.12 0 78.096 0 85.073 0 89.707 4.355 92 13.064M13.02.356C6.042.356 1.702 4.592 0 13.064"/>
        </g>
        <path stroke="#D7E7FF" stroke-linecap="round" stroke-linejoin="round" stroke-width="5.6" d="M164.9 180.827c2.091-6.777 6.797-10.166 14.116-10.166 7.32 0 11.66 3.389 13.02 10.166"/>
    </g>
</svg>
